<svg height="512" viewBox="0 0 512 512" width="512" xmlns="http://www.w3.org/2000/svg"><g><g fill="#57a4ff"><g><ellipse cx="224" cy="176" rx="16" ry="24"/><ellipse cx="288" cy="176" rx="16" ry="24"/><path d="m136 16v400h296v-400zm208 313.69a178.945 178.945 0 0 1 -48 6.31c-52.88 0-96.54-21.25-103.14-48.76l-.03-1.9a16.058 16.058 0 0 1 -8.83 2.66 16 16 0 0 1 -16-16v-12a20 20 0 0 1 20-20h4v-68a76 76 0 0 1 152 0v112.3a129.743 129.743 0 0 0 16 .97 119.348 119.348 0 0 0 39.98-6.52c.01.41.02.83.02 1.25 0 21.6-22.72 40.36-56 49.69z"/></g><g><ellipse cx="224" cy="176" rx="16" ry="24"/><ellipse cx="288" cy="176" rx="16" ry="24"/><ellipse cx="288" cy="176" rx="16" ry="24"/><ellipse cx="224" cy="176" rx="16" ry="24"/></g></g><g fill="#004fac"><path d="m432 8h-312a48.051 48.051 0 0 0 -48 48v400a48.051 48.051 0 0 0 48 48h312a8 8 0 0 0 8-8v-480a8 8 0 0 0 -8-8zm-344 48a32.03 32.03 0 0 1 32-32h8v384h-8a47.8 47.8 0 0 0 -32 12.26zm336 432h-304a32 32 0 0 1 0-64h304zm0-80h-280v-384h280z"/><path d="m360 448h-224a8 8 0 0 0 0 16h224a8 8 0 0 0 0-16z"/><path d="m400 448h-16a8 8 0 0 0 0 16h16a8 8 0 0 0 0-16z"/><path d="m280 296a24.027 24.027 0 0 0 24-24h4a8 8 0 0 0 0-16h-6a14.015 14.015 0 0 0 -14 14v2a8 8 0 0 1 -16 0v-12a12.013 12.013 0 0 1 12-12h24a8 8 0 0 0 0-16h-24a28.032 28.032 0 0 0 -28 28v12a24.027 24.027 0 0 0 24 24z"/><path d="m407.97 278.46a8.007 8.007 0 0 0 -10.71-7.24 111.217 111.217 0 0 1 -37.26 6.05q-4.035 0-8-.25v-105.02a84 84 0 0 0 -168 0v60.29a28.043 28.043 0 0 0 -24 27.71v12a23.919 23.919 0 0 0 27.3 23.76c12.11 28.32 56.09 48.24 108.7 48.24a185.51 185.51 0 0 0 50.16-6.61c38.14-10.7 61.84-32.69 61.84-57.39 0-.52-.01-1.03-.03-1.54zm-66.13 43.53a172.362 172.362 0 0 1 -45.84 6.01c-45.75 0-86.09-17.19-94.43-39.66a23.815 23.815 0 0 0 6.43-16.34h4a8 8 0 0 0 0-16h-6a14.015 14.015 0 0 0 -14 14v2a7.949 7.949 0 0 1 -2.34 5.66 8 8 0 0 1 -13.66-5.66v-12a12.01 12.01 0 0 1 12-12h24a8 8 0 0 0 0-16h-12v-60a68 68 0 0 1 136 0v112.31a8.01 8.01 0 0 0 7.02 7.94 139.268 139.268 0 0 0 16.98 1.02 134.819 134.819 0 0 0 29.72-3.23c-6.01 13.18-23.49 25.11-47.88 31.95z"/><path d="m288 208c13.458 0 24-14.056 24-32s-10.542-32-24-32-24 14.056-24 32 10.542 32 24 32zm0-48c3.262 0 8 6.233 8 16s-4.738 16-8 16-8-6.233-8-16 4.738-16 8-16z"/><path d="m224 208c13.458 0 24-14.056 24-32s-10.542-32-24-32-24 14.056-24 32 10.542 32 24 32zm0-48c3.262 0 8 6.233 8 16s-4.738 16-8 16-8-6.233-8-16 4.738-16 8-16z"/></g></g></svg>