<svg height="512pt" viewBox="0 -88 512 512" width="512pt" xmlns="http://www.w3.org/2000/svg"><path d="m25.6875 247.582031h271.125c10.042969 0 18.183594 8.140625 18.183594 18.183594v43.597656c0 10.046875-8.140625 18.1875-18.183594 18.1875h-271.125c-10.046875 0-18.1875-8.140625-18.1875-18.1875v-43.597656c0-10.042969 8.140625-18.183594 18.1875-18.183594zm0 0" fill="#79ace2"/><path d="m173.027344 247.582031h123.785156c10.042969 0 18.183594 8.140625 18.183594 18.183594v43.597656c0 10.046875-8.140625 18.1875-18.183594 18.1875h-152.082031c20.457031-23.132812 26.691406-52.238281 28.296875-79.96875zm0 0" fill="#6d9bcc"/><path d="m38.789062 87.554688h271.125c10.046876 0 18.1875 8.144531 18.1875 18.1875v43.597656c0 10.042968-8.140624 18.1875-18.1875 18.1875h-271.125c-10.042968 0-18.183593-8.144532-18.183593-18.1875v-43.597656c0-10.042969 8.140625-18.1875 18.183593-18.1875zm0 0" fill="#77c09f"/><path d="m186.132812 87.554688h123.78125c10.046876 0 18.1875 8.144531 18.1875 18.1875v43.597656c0 10.042968-8.140624 18.1875-18.1875 18.1875h-152.078124c20.453124-23.136719 26.691406-52.242188 28.296874-79.972656zm0 0" fill="#6eb394"/><path d="m115.796875 87.554688h36.402344v79.96875h-36.402344zm0 0" fill="#eeeeed"/><path d="m81.863281 87.554688h15v79.96875h-15zm0 0" fill="#eeeeed"/><path d="m61.78125 247.582031h42.027344v79.96875h-42.027344zm0 0" fill="#6d9bcc"/><path d="m196.761719 295.066406h-33.167969c-4.144531 0-7.5-3.359375-7.5-7.5 0-4.144531 3.355469-7.5 7.5-7.5h33.167969c4.144531 0 7.5 3.355469 7.5 7.5 0 4.140625-3.355469 7.5-7.5 7.5zm0 0" fill="#eeeeed"/><path d="m57.085938 167.613281h271.125c10.042968 0 18.1875 8.140625 18.1875 18.183594v43.597656c0 10.046875-8.144532 18.1875-18.1875 18.1875h-271.125c-10.046876 0-18.1875-8.140625-18.1875-18.1875v-43.597656c0-10.042969 8.140624-18.183594 18.1875-18.183594zm0 0" fill="#f8e47c"/><path d="m204.425781 167.613281h123.785157c10.042968 0 18.1875 8.140625 18.1875 18.183594v43.597656c0 10.046875-8.144532 18.1875-18.1875 18.1875h-152.082032c20.457032-23.136719 26.691406-52.238281 28.296875-79.96875zm0 0" fill="#edd35f"/><path d="m157.597656 215.097656h-74.804687c-4.140625 0-7.5-3.359375-7.5-7.5 0-4.144531 3.359375-7.5 7.5-7.5h74.804687c4.140625 0 7.5 3.355469 7.5 7.5 0 4.140625-3.359375 7.5-7.5 7.5zm0 0" fill="#998377"/><path d="m205.585938 215.097656h-17.644532c-4.140625 0-7.5-3.359375-7.5-7.5 0-4.144531 3.359375-7.5 7.5-7.5h17.644532c4.140624 0 7.5 3.355469 7.5 7.5 0 4.140625-3.359376 7.5-7.5 7.5zm0 0" fill="#998377"/><path d="m484.761719 327.550781h-219.765625c-10.898438 0-19.734375-8.835937-19.734375-19.738281v-280.574219c0-10.902343 8.835937-19.738281 19.734375-19.738281h219.765625c10.902343 0 19.738281 8.835938 19.738281 19.738281v280.574219c0 10.902344-8.835938 19.738281-19.738281 19.738281zm0 0" fill="#eb8d9a"/><path d="m305.214844 7.5h-40.21875c-10.898438 0-19.734375 8.835938-19.734375 19.738281v280.574219c0 10.902344 8.835937 19.738281 19.734375 19.738281h183.007812c-122.792968-71.398437-140.371094-221.339843-142.789062-320.050781zm0 0" fill="#d67c88"/><path d="m285.824219 327.550781h-20.824219c-10.902344 0-19.738281-8.835937-19.738281-19.738281v-280.574219c0-10.902343 8.835937-19.738281 19.738281-19.738281h20.824219zm0 0" fill="#495059"/><path d="m445.222656 219.132812c0 19.53125-15.832031 35.363282-35.363281 35.363282s-35.367187-15.832032-35.367187-35.363282 15.835937-35.367187 35.367187-35.367187 35.363281 15.835937 35.363281 35.367187zm0 0" fill="#f8e47c"/><path d="m356.382812 282.59375h43.492188c5.511719 0 9.984375-4.46875 9.984375-9.984375v-43.492187c0-5.515626-4.472656-9.984376-9.984375-9.984376h-43.492188c-5.515624 0-9.984374 4.46875-9.984374 9.984376v43.492187c-.003907 5.515625 4.46875 9.984375 9.984374 9.984375zm0 0" fill="#f6c273"/><path d="m356.382812 282.59375h35.476563c-17.164063-18.554688-30.957031-39.207031-42.023437-61.003906-2.101563 1.828125-3.4375 4.519531-3.4375 7.527344v43.492187c-.003907 5.515625 4.46875 9.984375 9.984374 9.984375zm0 0" fill="#e6b469"/><path d="m457.5625 73.78125-9.648438-7.683594c-3.160156-2.519531-7.644531-2.519531-10.804687 0l-9.648437 7.683594c-3.332032 2.65625-8.257813.285156-8.257813-3.976562v-62.304688h46.613281v62.304688c0 4.261718-4.921875 6.632812-8.253906 3.976562zm0 0" fill="#d67c88"/><path d="m463.714844 65.699219-9.648438-7.6875c-3.164062-2.519531-7.644531-2.519531-10.804687 0l-9.648438 7.6875c-3.332031 2.652343-8.257812.28125-8.257812-3.980469v-54.21875h46.613281v54.222656c0 4.257813-4.925781 6.628906-8.253906 3.976563zm0 0" fill="#f8e47c"/><path d="m354.277344 135.320312c0-10.679687-10.871094-19.335937-24.28125-19.335937-13.414063 0-24.285156 8.65625-24.285156 19.335937 0 10.683594 10.871093 19.339844 24.285156 19.339844 13.410156 0 24.28125-8.65625 24.28125-19.339844zm0 0" fill="#f8b8bd"/><path d="m485.910156 135.320312c0-10.679687-10.875-19.335937-24.285156-19.335937s-24.285156 8.65625-24.285156 19.335937c0 10.683594 10.875 19.339844 24.285156 19.339844s24.285156-8.65625 24.285156-19.339844zm0 0" fill="#f8b8bd"/><path d="m454.972656 116.027344v-8.574219c0-4.140625-3.359375-7.5-7.5-7.5-4.144531 0-7.5 3.359375-7.5 7.5v8.574219c0 4.144531 3.355469 7.5 7.5 7.5 4.140625 0 7.5-3.355469 7.5-7.5zm-59.164062 14.085937c7.390625 0 14.414062-3.199219 19.277344-8.777343 2.71875-3.121094 2.394531-7.859376-.730469-10.578126-3.121094-2.722656-7.859375-2.398437-10.582031.726563-2.011719 2.308594-4.914063 3.628906-7.964844 3.628906-3.050782 0-5.953125-1.324219-7.964844-3.632812-2.722656-3.121094-7.460938-3.445313-10.582031-.726563-3.121094 2.722656-3.449219 7.460938-.726563 10.582032 4.863282 5.578124 11.886719 8.777343 19.273438 8.777343zm-39.429688 159.980469h43.492188c9.644531 0 17.484375-7.84375 17.484375-17.484375v-11.28125c20.070312-3.558594 35.367187-21.117187 35.367187-42.195313 0-23.636718-19.230468-42.867187-42.867187-42.867187-21.074219 0-38.636719 15.296875-42.195313 35.367187h-11.28125c-9.640625 0-17.484375 7.84375-17.484375 17.484376v43.492187c0 9.640625 7.84375 17.484375 17.484375 17.484375zm53.480469-98.828125c15.363281 0 27.863281 12.5 27.863281 27.867187 0 12.765626-8.632812 23.546876-20.363281 26.832032v-16.847656c0-9.640626-7.84375-17.484376-17.484375-17.484376h-16.847656c3.28125-11.734374 14.0625-20.367187 26.832031-20.367187zm-55.964844 37.851563c0-1.371094 1.117188-2.484376 2.484375-2.484376h43.492188c1.371094 0 2.484375 1.113282 2.484375 2.484376v43.492187c0 1.371094-1.113281 2.484375-2.484375 2.484375h-43.492188c-1.367187 0-2.484375-1.113281-2.484375-2.484375zm150.605469 41.878906c4.140625 0 7.5-3.355469 7.5-7.5v-236.257813c0-15.019531-12.21875-27.238281-27.238281-27.238281h-219.765625c-15.015625 0-27.234375 12.21875-27.234375 27.238281v52.816407h-177.179688c-4.140625 0-7.5 3.359374-7.5 7.5 0 4.144531 3.359375 7.5 7.5 7.5h177.179688v64.96875h-198.972657c-5.890624 0-10.683593-4.792969-10.683593-10.683594v-43.597656c0-3.226563 1.433593-6.25 3.941406-8.289063 3.207031-2.617187 3.6875-7.34375 1.070313-10.554687-2.617188-3.210938-7.34375-3.691407-10.550782-1.070313-6.011718 4.902344-9.460937 12.160156-9.460937 19.914063v43.597656c0 12.519531 9.007812 22.972656 20.882812 25.226562-1.65625 3.394532-2.589843 7.207032-2.589843 11.230469v43.597656c0 3.8125.839843 7.429688 2.339843 10.6875h-8.050781c-14.164062 0-25.6875 11.523438-25.6875 25.683594v43.597656c0 14.164063 11.523438 25.6875 25.683594 25.6875h459.078125c15.019531 0 27.238281-12.21875 27.238281-27.238281v-9.566406c0-4.144532-3.359375-7.5-7.5-7.5-4.144531 0-7.5 3.355468-7.5 7.5v9.566406c0 6.75-5.492188 12.238281-12.238281 12.238281h-191.4375v-305.050781h124.535156v46.722656c0 4.875 2.726563 9.21875 7.121094 11.335938 4.394531 2.117187 9.492187 1.542968 13.304687-1.496094l9.648438-7.683594c.429687-.34375 1.027344-.34375 1.457031 0l9.648437 7.6875c2.289063 1.820313 5.039063 2.757813 7.820313 2.757813 1.855469 0 3.730469-.417969 5.488281-1.265625 4.390625-2.117188 7.121094-6.460938 7.121094-11.335938v-46.722656h5.292969c6.75 0 12.238281 5.488281 12.238281 12.238281v236.257813c0 4.144531 3.359375 7.5 7.5 7.5zm-458.101562-85.199219c0-5.890625 4.792968-10.6875 10.6875-10.6875h180.675781v64.972656h-180.675781c-5.894532 0-10.6875-4.796875-10.6875-10.6875zm-20.714844 134.253906c-5.890625 0-10.683594-4.792969-10.683594-10.6875v-43.597656c0-5.890625 4.792969-10.683594 10.683594-10.683594h212.078125v52.730469c0 4.402344 1.054687 8.554688 2.914062 12.238281zm252.640625 0h-13.328125c-6.746094 0-12.234375-5.492187-12.234375-12.238281v-280.574219c0-6.75 5.488281-12.238281 12.234375-12.238281h13.328125zm186.144531-263.339843-5.730469-4.566407c-5.929687-4.726562-14.21875-4.726562-20.152343 0l-5.730469 4.566407v-41.710938h31.613281zm-112.820312 59.316406v-8.574219c0-4.140625-3.359376-7.5-7.5-7.5-4.140626 0-7.5 3.359375-7.5 7.5v8.574219c0 4.144531 3.359374 7.5 7.5 7.5 4.140624 0 7.5-3.355469 7.5-7.5zm0 0"/></svg>